<?xml version="1.0" encoding="utf-8"?>
<!-- Uploaded to: SVG Repo, www.svgrepo.com, Generator: SVG Repo Mixer Tools -->
<svg width="800px" height="800px" viewBox="0 0 64 64" fill="none" xmlns="http://www.w3.org/2000/svg">
<g clip-path="url(#clip0_14_1949)">
<path d="M28.861 31.758C34.5932 31.758 39.24 27.1112 39.24 21.379C39.24 15.6468 34.5932 11 28.861 11C23.1288 11 18.482 15.6468 18.482 21.379C18.482 27.1112 23.1288 31.758 28.861 31.758Z" stroke="#000000" stroke-width="4" stroke-linecap="round" stroke-linejoin="round"/>
<path d="M40.996 36.349C38.0238 33.4015 34.0058 31.7503 29.82 31.756H27.896C23.6791 31.756 19.6348 33.4312 16.653 36.413C13.6712 39.3948 11.996 43.4391 11.996 47.656V52.506H45.716V51.756" stroke="#000000" stroke-width="4" stroke-linecap="round" stroke-linejoin="round"/>
<path d="M46.796 39.314L52.437 44.954" stroke="#426AB2" stroke-width="4" stroke-linecap="round" stroke-linejoin="round"/>
<path d="M52.437 39.314L46.796 44.954" stroke="#426AB2" stroke-width="4" stroke-linecap="round" stroke-linejoin="round"/>
</g>
<defs>
<clipPath id="clip0_14_1949">
<rect width="44.437" height="45.509" fill="white" transform="translate(10 9)"/>
</clipPath>
</defs>
</svg>